# xmcd
#
# Track frame offsets: 
#        150
#        12962
#        23452
#        34890
#        45977
#        57545
#        69465
#        81590
#        94565
#        104950
#        117952
#        129382
#        140805
#        152782
#        163637
#        174587
#        187202
#        199310
#        211547
#        223330
#        236537
#        248150
#        261922
#        271937
#        283857
#        294545
#
# Disc length: 4077 seconds
#
# Revision: 2
# Processed by: cddbd v1.5.2PL0 Copyright (c) Steve Scherf et al.
# Submitted via: ExactAudioCopy v1.0b1
#
DISCID=900feb1a
DTITLE=Big John Greer - Rockin' With Big John CD03
DYEAR=1992
DGENRE=Blues
TTITLE0=Play Me Some Loud Music (mono)
TTITLE1=Come Back Maybelline (mono)
TTITLE2=Blam (mono)
TTITLE3=Bottle It Up And Go (mono)
TTITLE4=A Man And A Woman (mono)
TTITLE5=Can't Stand It Any Longer (mono)
TTITLE6=Soon, Soon, Soon (mono)
TTITLE7=I'm Glad For Your Sake (mono)
TTITLE8=Lucky, Lucky Me (mono)
TTITLE9=Wait Till After Xmas (mono)
TTITLE10=Will I Be The One (mono)
TTITLE11=Santa Do The Mambo (mono)
TTITLE12=I'll Never Stop Loving You (mono)
TTITLE13=I Didn't Know (mono)
TTITLE14=Lately (mono)
TTITLE15=Don't Worry About It (mono)
TTITLE16=Ride Pretty Baby (mono)
TTITLE17=Drinkin' Fool (mono)
TTITLE18=I Spoke Too Soon (mono)
TTITLE19=Confusion Blues (mono)
TTITLE20=Too Long (mono)
TTITLE21=Don't Let Me Down (mono)
TTITLE22=Will I Be The One (alt) (mono)
TTITLE23=Rhythm In The Breeze (mono)
TTITLE24=Getting Mighty Lonesome For You (mono)
TTITLE25=Night Crawlin' (mono)
EXTD=
EXTT0=
EXTT1=
EXTT2=
EXTT3=
EXTT4=
EXTT5=
EXTT6=
EXTT7=
EXTT8=
EXTT9=
EXTT10=
EXTT11=
EXTT12=
EXTT13=
EXTT14=
EXTT15=
EXTT16=
EXTT17=
EXTT18=
EXTT19=
EXTT20=
EXTT21=
EXTT22=
EXTT23=
EXTT24=
EXTT25=
PLAYORDER=
